# xmcd CD database file
#
# Track frame offsets:
#	150
#	12879
#	25228
#	38298
#	49917
#	62117
#	74555
#	86392
#	98215
#	108682
#	121783
#	131925
#	143532
#	153479
#	164169
#	178556
#	191760
#	205360
#	218430
#	230636
#	242583
#	253291
#
# Disc length: 3524 seconds
#
# Revision: 0
# Processed by: cddbd v1.5PL3 Copyright (c) Steve Scherf et al.
# Submitted via: CDex 1.40Release
#
DISCID=3d0dc216
DTITLE=Eddy Arnold - Eddy's Song, CD 1, Bouquet of Roses
DYEAR=2003
DGENRE=Country
TTITLE0=What Is Life Without Love
TTITLE1=I'll Hold You In My Heart (Till I Can Hold You In My Arms)
TTITLE2=Anytime
TTITLE3=Bouquet Of Roses
TTITLE4=Texarkana Baby
TTITLE5=Just A Little Lovin' (Will Go A Long, Long Way)
TTITLE6=A Heart Full Of Love (For A Handful Of Kisses)
TTITLE7=Don't Rob Another Man's Castle
TTITLE8=One Kiss Too Many
TTITLE9=Take Me In Your Arms And Hold Me
TTITLE10=There's Been A Change In Me
TTITLE11=Kentucky Waltz
TTITLE12=I Wanna Play House (With You)
TTITLE13=Eddy's Song
TTITLE14=That's How Much I Love You
TTITLE15=To My Sorrow
TTITLE16=What A Fool I Was
TTITLE17=Then I Turned And Slowly Walked Away
TTITLE18=The Echo Of Your Footsteps
TTITLE19=I'm Throwing Rice (At The Girl I Love)
TTITLE20=Cuddle Buggin' Baby
TTITLE21=The Lovebug Itch
EXTD=YEAR: 2003 ID3G: 2
EXTT0=
EXTT1=
EXTT2=
EXTT3=
EXTT4=
EXTT5=
EXTT6=
EXTT7=
EXTT8=
EXTT9=
EXTT10=
EXTT11=
EXTT12=
EXTT13=
EXTT14=
EXTT15=
EXTT16=
EXTT17=
EXTT18=
EXTT19=
EXTT20=
EXTT21=
PLAYORDER=
